<svg width="28" height="17" viewBox="0 0 28 17" fill="none" xmlns="http://www.w3.org/2000/svg">
<rect width="28" height="17" rx="8.5" fill="#8FD1E9"/>
<path d="M8.23047 6.77344L8.25391 7.30469C8.57682 6.89844 8.9987 6.69531 9.51953 6.69531C10.4128 6.69531 10.8633 7.19922 10.8711 8.20703V11H10.1484V8.20312C10.1458 7.89844 10.0755 7.67318 9.9375 7.52734C9.80208 7.38151 9.58984 7.30859 9.30078 7.30859C9.06641 7.30859 8.86068 7.37109 8.68359 7.49609C8.50651 7.62109 8.36849 7.78516 8.26953 7.98828V11H7.54688V6.77344H8.23047ZM13.7148 11.0781C13.1419 11.0781 12.6758 10.8906 12.3164 10.5156C11.957 10.138 11.7773 9.63411 11.7773 9.00391V8.87109C11.7773 8.45182 11.8568 8.07812 12.0156 7.75C12.1771 7.41927 12.401 7.16146 12.6875 6.97656C12.9766 6.78906 13.2891 6.69531 13.625 6.69531C14.1745 6.69531 14.6016 6.8763 14.9062 7.23828C15.2109 7.60026 15.3633 8.11849 15.3633 8.79297V9.09375H12.5C12.5104 9.51042 12.6315 9.84766 12.8633 10.1055C13.0977 10.3607 13.3945 10.4883 13.7539 10.4883C14.0091 10.4883 14.2253 10.4362 14.4023 10.332C14.5794 10.2279 14.7344 10.0898 14.8672 9.91797L15.3086 10.2617C14.9544 10.806 14.4232 11.0781 13.7148 11.0781ZM13.625 7.28906C13.3333 7.28906 13.0885 7.39583 12.8906 7.60938C12.6927 7.82031 12.5703 8.11719 12.5234 8.5H14.6406V8.44531C14.6198 8.07812 14.5208 7.79427 14.3438 7.59375C14.1667 7.39062 13.9271 7.28906 13.625 7.28906ZM19.9453 10.0039L20.7578 6.77344H21.4805L20.25 11H19.6641L18.6367 7.79688L17.6367 11H17.0508L15.8242 6.77344H16.543L17.375 9.9375L18.3594 6.77344H18.9414L19.9453 10.0039Z" fill="white"/>
</svg>
