<?xml version="1.0" encoding="UTF-8"?>
<svg width="24px" height="24px" viewBox="0 0 24 24" version="1.1" xmlns="http://www.w3.org/2000/svg" xmlns:xlink="http://www.w3.org/1999/xlink">
    <!-- Generator: Sketch 51.3 (57544) - http://www.bohemiancoding.com/sketch -->
    <title>NSB_bagel_icon 1</title>
    <desc>Created with Sketch.</desc>
    <defs></defs>
    <g id="Page-1" stroke="none" stroke-width="1" fill="none" fill-rule="evenodd">
        <g id="NSB_bagel_icon-1" fill="#231F20" fill-rule="nonzero">
            <path d="M3.0315,12.0298 C3.0315,7.1026 7.0408,3.0953 11.969,3.0953 C16.8972,3.0953 20.9066,7.1026 20.9066,12.0298 C20.9066,16.959 16.8972,20.9663 11.969,20.9663 C7.0408,20.9663 3.0315,16.959 3.0315,12.0298 Z M11.969,0.9308 C5.8373,0.9308 0.869,5.9012 0.869,12.0298 C0.869,18.1605 5.8373,23.1308 11.969,23.1308 C18.1007,23.1308 23.069,18.1605 23.069,12.0298 C23.069,5.9012 18.1007,0.9308 11.969,0.9308 Z" id="Shape"></path>
            <path d="M10.2658,12.0308 C10.2658,11.0914 11.0295,10.3278 11.9689,10.3278 C12.9082,10.3278 13.6719,11.0914 13.6719,12.0308 C13.6719,12.9702 12.9082,13.7339 11.9689,13.7339 C11.0295,13.7339 10.2658,12.9702 10.2658,12.0308 Z M11.9689,9.0965 C10.348,9.0965 9.0345,10.41 9.0345,12.0308 C9.0345,13.6516 10.348,14.9651 11.9689,14.9651 C13.5897,14.9651 14.9032,13.6516 14.9032,12.0308 C14.9032,10.41 13.5897,9.0965 11.9689,9.0965 Z" id="Shape"></path>
            <path d="M15.7965,5.6113 C15.6012,5.6113 15.4419,5.7706 15.4419,5.9659 C15.4419,6.1612 15.6012,6.3205 15.7965,6.3205 C15.9918,6.3205 16.1511,6.1612 16.1511,5.9659 C16.1511,5.7706 15.9918,5.6113 15.7965,5.6113 Z" id="Shape"></path>
            <path d="M16.3001,8.743 C16.1049,8.743 15.9456,8.9023 15.9456,9.0976 C15.9456,9.2928 16.1049,9.4521 16.3001,9.4521 C16.4954,9.4521 16.6547,9.2928 16.6547,9.0976 C16.6547,8.9023 16.4954,8.743 16.3001,8.743 Z" id="Shape"></path>
            <path d="M6.2843,11.0287 C6.089,11.0287 5.9297,11.1881 5.9297,11.3833 C5.9297,11.5786 6.089,11.7379 6.2843,11.7379 C6.4795,11.7379 6.6389,11.5786 6.6389,11.3833 C6.6389,11.1881 6.4795,11.0287 6.2843,11.0287 Z" id="Shape"></path>
            <path d="M10.0645,16.5448 C9.8693,16.5448 9.71,16.7041 9.71,16.8994 C9.71,17.0947 9.8693,17.254 10.0645,17.254 C10.2598,17.254 10.4191,17.0947 10.4191,16.8994 C10.4191,16.7041 10.2588,16.5448 10.0645,16.5448 Z" id="Shape"></path>
            <path d="M6.5362,16.294 C6.3409,16.294 6.1816,16.4533 6.1816,16.6486 C6.1816,16.8439 6.3409,17.0032 6.5362,17.0032 C6.7315,17.0032 6.8908,16.8439 6.8908,16.6486 C6.8908,16.4533 6.7315,16.294 6.5362,16.294 Z" id="Shape"></path>
            <path d="M18.1016,7.7707 C17.9064,7.7707 17.7471,7.93 17.7471,8.1253 C17.7471,8.3206 17.9064,8.4799 18.1016,8.4799 C18.2969,8.4799 18.4562,8.3206 18.4562,8.1253 C18.4562,7.93 18.2959,7.7707 18.1016,7.7707 Z" id="Shape"></path>
        </g>
    </g>
</svg>