<svg width="24" height="25" viewBox="0 0 24 25" fill="none" xmlns="http://www.w3.org/2000/svg">
<path d="M22.6625 6.29688H19.9937V7.33334C19.9937 8.47684 18.8 9.41111 17.325 9.41111C15.8562 9.41111 14.6562 8.48171 14.6562 7.33334V6.29688H9.325V7.33334C9.325 8.47684 8.13125 9.41111 6.65625 9.41111C5.1875 9.41111 3.9875 8.48171 3.9875 7.33334V6.29688H1.33125C1.33125 16.676 0 24.9823 0 24.9823H24C23.9937 24.9823 22.6625 16.676 22.6625 6.29688ZM6.6625 8.37466C7.4 8.37466 7.99375 7.91239 7.99375 7.3382V5.26043C7.99375 3.53787 9.78125 2.1462 11.9937 2.1462C14.2062 2.1462 15.9937 3.53787 15.9937 5.26043V7.3382C15.9937 7.91239 16.5875 8.37466 17.325 8.37466C18.0625 8.37466 18.6562 7.91239 18.6562 7.3382V5.26043C18.6625 2.39436 15.675 0.0684204 11.9937 0.0684204C8.3125 0.0684204 5.325 2.39436 5.325 5.26043V7.3382C5.33125 7.90752 5.925 8.37466 6.6625 8.37466Z" fill="black"/>
</svg>
